HIERARCHY
ROOT ui
{
	 OFFSET 0 0 0
	 CHANNELS 3 XPosition YPosition Z Position
	 EndSite
	 {
	 OFFSET 0 -1 0
	 }
}
ROOT li
{
	 OFFSET 0 0 0
	 CHANNELS 3 XPosition YPosition Z Position
	 EndSite
	 {
	 OFFSET 0 -1 0
	 }
}
ROOT ul
{
	 OFFSET 0 0 0
	 CHANNELS 3 XPosition YPosition Z Position
	 EndSite
	 {
	 OFFSET 0 -1 0
	 }
}
ROOT ll
{
	 OFFSET 0 0 0
	 CHANNELS 3 XPosition YPosition Z Position
	 EndSite
	 {
	 OFFSET 0 -1 0
	 }
}
ROOT tt
{
	 OFFSET 0 0 0
	 CHANNELS 3 XPosition YPosition Z Position
	 EndSite
	 {
	 OFFSET 0 -1 0
	 }
}
ROOT tb
{
	 OFFSET 0 0 0
	 CHANNELS 3 XPosition YPosition Z Position
	 EndSite
	 {
	 OFFSET 0 -1 0
	 }
}
ROOT td
{
	 OFFSET 0 0 0
	 CHANNELS 3 XPosition YPosition Z Position
	 EndSite
	 {
	 OFFSET 0 -1 0
	 }
}
ROOT v
{
	 OFFSET 0 0 0
	 CHANNELS 3 XPosition YPosition Z Position
	 EndSite
	 {
	 OFFSET 0 -1 0
	 }
}
ROOT bn
{
	 OFFSET 0 0 0
	 CHANNELS 3 XPosition YPosition Z Position
	 EndSite
	 {
	 OFFSET 0 -1 0
	 }
}
MOTION
Frames: 13
Frame Time: 0.002
-0.006658049106597901	-5.080810189247131E-4	0		0.47940472412109375	-2.366319580078125	0		-1.0214732055664062	0.01896350860595703	0		-0.7696708984375	-2.214863037109375	0		1.5436273193359376	-0.5234195556640625	0		3.307573486328125	-0.024622180938720702	0		4.78770751953125	-0.03393478012084961	0		5.5832958984375	0.1272715530395508	0		0.020033487319946287	5.988267578125	0		
-0.0054806509017944335	-6.751239895820617E-4	0		0.5064085083007812	-2.369063232421875	0		-0.9463326416015625	0.01628116226196289	0		-0.7425106201171875	-2.2105419921875	0		1.5248026123046876	-0.522244873046875	0		3.297858154296875	-0.01973270034790039	0		4.793009765625	-0.028442060470581055	0		5.59407470703125	0.10760049438476563	0		0.03675814437866211	5.9987783203125	0		
-0.03136859703063965	-2.752540111541748E-4	0		0.4663807678222656	-2.369391845703125	0		-1.0191878662109375	0.018728282928466795	0		-0.7645767822265624	-2.213188720703125	0		1.5289449462890625	-0.51956201171875	0		3.309109619140625	-0.013290696144104004	0		4.789306640625	-0.019758459091186523	0		5.60035546875	0.11503057861328125	0		0.05240303421020508	6.0093017578125	0		
-2.8710699081420897E-4	0.0019067490100860595	0		0.5222125854492188	-2.373765625	0		-0.9360532836914063	0.022850053787231445	0		-0.7595765991210938	-2.2094169921875	0		1.5330283203125	-0.5158814697265625	0		3.319088623046875	-0.015823856353759765	0		4.79513720703125	-0.029277359008789063	0		5.586623046875	0.1258935241699219	0		0.03949079895019531	5.99842041015625	0		
-0.025323287963867187	0.0032784640789031982	0		0.48728280639648436	-2.362206787109375	0		-0.9392003173828125	0.01879623794555664	0		-0.726898681640625	-2.217246826171875	0		1.5508304443359375	-0.5214971923828124	0		3.3200244140625	-0.016159982681274415	0		4.791265625	-0.020576757431030275	0		5.5971572265625	0.10624375915527344	0		0.040703529357910155	5.9982353515625	0		
-0.001568145990371704	-0.001397210955619812	0		0.5098731689453125	-2.369882080078125	0		-0.9424169311523437	0.01573697566986084	0		-0.729189453125	-2.2193369140625	0		1.5316800537109374	-0.5203211669921874	0		3.295939453125	-0.012952853202819824	0		4.7921103515625	-0.0209665470123291	0		5.589052734375	0.10801171875	0		0.026573129653930664	5.98737158203125	0		
-0.02780597686767578	-0.001005308985710144	0		0.45765664672851564	-2.363953857421875	0		-0.9416602783203125	0.015586627006530763	0		-0.7285194702148438	-2.219495361328125	0		1.549326171875	-0.524930908203125	0		3.296695068359375	-0.013267555236816407	0		4.78669580078125	-0.02920882034301758	0		5.57979345703125	0.10682267761230468	0		0.043771995544433596	5.99683837890625	0		
-1.4179199934005737E-4	-0.0017712689638137817	0		0.4960434265136719	-2.373970703125	0		-1.0090595092773438	0.012892738342285156	0		-0.758768310546875	-2.21199365234375	0		1.5410235595703126	-0.5229789428710937	0		3.335377685546875	-0.013384782791137695	0		4.7914931640625	-0.023648735046386718	0		5.6046123046875	0.11292574310302735	0		0.06083919143676758	6.00530419921875	0		
-0.019394189834594726	0.0054706130027771	0		0.47578448486328123	-2.363722900390625	0		-0.99625439453125	0.02247625732421875	0		-0.7182084350585938	-2.211017822265625	0		1.562853515625	-0.5116659851074219	0		3.306170166015625	-0.00402855920791626	0		4.79725537109375	-0.016088489532470704	0		5.5952109375	0.11278589630126953	0		0.045422313690185546	5.9964619140625	0		
0.08099919128417969	-0.0018648550510406495	0		0.49026690673828127	-2.36322119140625	0		-0.9398718872070313	0.015112860679626465	0		-0.7577742309570312	-2.21232275390625	0		1.534156005859375	-0.5212637329101563	0		3.30258740234375	-0.00920976734161377	0		4.7905009765625	-0.029241065979003906	0		5.585783203125	0.1146741943359375	0		0.04512009811401367	5.99729736328125	0		
-0.02147138786315918	0.002170074939727783	0		0.48861654663085935	-2.36636962890625	0		-0.9394091186523438	0.01495012378692627	0		-0.7363406372070312	-2.21194189453125	0		1.55458154296875	-0.5229080810546874	0		3.3088974609375	-0.016587490081787108	0		4.79511279296875	-0.022609580993652345	0		5.60102880859375	0.10405625915527343	0		0.046684246063232425	5.9960927734375	0		
0.0018397910594940186	-0.0025035510063171388	0		0.48693917846679685	-2.3685126953125	0		-1.0129674072265624	0.017381269454956053	0		-0.7620746459960938	-2.216547607421875	0		1.535002197265625	-0.5216806640625	0		3.309300048828125	-0.01681883430480957	0		4.80031982421875	-0.03197014999389648	0		5.592435546875	0.10398269653320312	0		0.047181846618652344	5.9959130859375	0		
-0.02481157684326172	-0.002096496105194092	0		0.47219403076171873	-2.371369140625	0		-1.0067340698242186	0.012088882446289062	0		-0.7227875366210937	-2.218555419921875	0		1.540208251953125	-0.5279795532226562	0		3.303794677734375	-0.009903160095214844	0		4.793814453125	-0.02504946517944336	0		5.59214599609375	0.12076282501220703	0		0.06182485580444336	6.0064326171875	0		
